<mxfile host="app.diagrams.net" modified="2024-06-24T13:00:10.133Z" agent="Mozilla/5.0 (Windows NT 10.0; Win64; x64) AppleWebKit/537.36 (KHTML, like Gecko) Chrome/126.0.0.0 Safari/537.36 Edg/126.0.0.0" etag="_D1oB2hE8RYOufXIxL4r" version="24.6.2" type="onedrive">
  <diagram name="System Architecture" id="j7GOeCMXOTIkQ-rWwW7r">
    <mxGraphModel grid="1" page="1" gridSize="10" guides="1" tooltips="1" connect="1" arrows="1" fold="1" pageScale="1" pageWidth="827" pageHeight="1169" math="0" shadow="0">
      <root>
        <mxCell id="0" />
        <mxCell id="1" parent="0" />
        <UserObject label="Docker container&#xa;" id="oY3QCo9mC8rn7OS_cZj4-2">
          <mxCell style="swimlane;startSize=0;" vertex="1" parent="1">
            <mxGeometry x="90" y="210" width="670" height="350" as="geometry" />
          </mxCell>
        </UserObject>
        <mxCell id="oY3QCo9mC8rn7OS_cZj4-21" value="Request parameter values" style="edgeStyle=orthogonalEdgeStyle;rounded=0;orthogonalLoop=1;jettySize=auto;html=1;entryX=0;entryY=0.25;entryDx=0;entryDy=0;" edge="1" parent="oY3QCo9mC8rn7OS_cZj4-2" target="oY3QCo9mC8rn7OS_cZj4-6">
          <mxGeometry relative="1" as="geometry">
            <mxPoint x="90" y="75" as="sourcePoint" />
            <Array as="points">
              <mxPoint x="101" y="79" />
              <mxPoint x="201" y="79" />
            </Array>
          </mxGeometry>
        </mxCell>
        <mxCell id="oY3QCo9mC8rn7OS_cZj4-3" value="" style="shape=image;verticalLabelPosition=bottom;labelBackgroundColor=default;verticalAlign=top;aspect=fixed;imageAspect=0;image=https://static-00.iconduck.com/assets.00/html-5-icon-726x1024-evem6gg5.png;fontStyle=0" vertex="1" parent="oY3QCo9mC8rn7OS_cZj4-2">
          <mxGeometry x="30" y="50" width="70.9" height="100" as="geometry" />
        </mxCell>
        <mxCell id="oY3QCo9mC8rn7OS_cZj4-12" value="Execute analysis scripts" style="rounded=0;orthogonalLoop=1;jettySize=auto;html=1;exitX=1;exitY=0.5;exitDx=0;exitDy=0;entryX=0;entryY=0.75;entryDx=0;entryDy=0;" edge="1" parent="oY3QCo9mC8rn7OS_cZj4-2" source="oY3QCo9mC8rn7OS_cZj4-6" target="oY3QCo9mC8rn7OS_cZj4-9">
          <mxGeometry relative="1" as="geometry" />
        </mxCell>
        <mxCell id="oY3QCo9mC8rn7OS_cZj4-13" value="Execute analysis scripts" style="rounded=0;orthogonalLoop=1;jettySize=auto;html=1;exitX=1;exitY=0.5;exitDx=0;exitDy=0;entryX=0;entryY=0;entryDx=0;entryDy=0;" edge="1" parent="oY3QCo9mC8rn7OS_cZj4-2" source="oY3QCo9mC8rn7OS_cZj4-6" target="oY3QCo9mC8rn7OS_cZj4-10">
          <mxGeometry x="0.3341" y="14" relative="1" as="geometry">
            <mxPoint as="offset" />
          </mxGeometry>
        </mxCell>
        <mxCell id="oY3QCo9mC8rn7OS_cZj4-22" value="Forward parameter values" style="edgeStyle=orthogonalEdgeStyle;rounded=0;orthogonalLoop=1;jettySize=auto;html=1;exitX=0;exitY=0.5;exitDx=0;exitDy=0;" edge="1" parent="oY3QCo9mC8rn7OS_cZj4-2" source="oY3QCo9mC8rn7OS_cZj4-6" target="oY3QCo9mC8rn7OS_cZj4-3">
          <mxGeometry relative="1" as="geometry" />
        </mxCell>
        <mxCell id="oY3QCo9mC8rn7OS_cZj4-24" value="Request&lt;div&gt;file paths&lt;/div&gt;" style="edgeStyle=orthogonalEdgeStyle;rounded=0;orthogonalLoop=1;jettySize=auto;html=1;entryX=0.75;entryY=0;entryDx=0;entryDy=0;" edge="1" parent="oY3QCo9mC8rn7OS_cZj4-2" source="oY3QCo9mC8rn7OS_cZj4-6" target="oY3QCo9mC8rn7OS_cZj4-8">
          <mxGeometry relative="1" as="geometry">
            <Array as="points">
              <mxPoint x="360" y="144" />
              <mxPoint x="361" y="144" />
            </Array>
          </mxGeometry>
        </mxCell>
        <mxCell id="oY3QCo9mC8rn7OS_cZj4-6" value="" style="shape=image;verticalLabelPosition=bottom;labelBackgroundColor=default;verticalAlign=top;aspect=fixed;imageAspect=0;image=https://static-00.iconduck.com/assets.00/flask-icon-1594x2048-84mjydzf.png;" vertex="1" parent="oY3QCo9mC8rn7OS_cZj4-2">
          <mxGeometry x="301" y="56.32" width="68" height="87.37" as="geometry" />
        </mxCell>
        <mxCell id="oY3QCo9mC8rn7OS_cZj4-23" value="Return&lt;div&gt;file paths&lt;/div&gt;" style="edgeStyle=orthogonalEdgeStyle;rounded=0;orthogonalLoop=1;jettySize=auto;html=1;" edge="1" parent="oY3QCo9mC8rn7OS_cZj4-2" source="oY3QCo9mC8rn7OS_cZj4-8" target="oY3QCo9mC8rn7OS_cZj4-6">
          <mxGeometry relative="1" as="geometry">
            <Array as="points">
              <mxPoint x="310" y="150" />
              <mxPoint x="310" y="150" />
            </Array>
          </mxGeometry>
        </mxCell>
        <mxCell id="oY3QCo9mC8rn7OS_cZj4-8" value="Database" style="shape=image;verticalLabelPosition=bottom;labelBackgroundColor=default;verticalAlign=top;aspect=fixed;imageAspect=0;image=https://upload.wikimedia.org/wikipedia/commons/thumb/3/38/SQLite370.svg/2560px-SQLite370.svg.png;" vertex="1" parent="oY3QCo9mC8rn7OS_cZj4-2">
          <mxGeometry x="283.33" y="260" width="103.34" height="49" as="geometry" />
        </mxCell>
        <mxCell id="oY3QCo9mC8rn7OS_cZj4-15" value="Return analysis results" style="rounded=0;orthogonalLoop=1;jettySize=auto;html=1;exitX=0;exitY=0.25;exitDx=0;exitDy=0;" edge="1" parent="oY3QCo9mC8rn7OS_cZj4-2" source="oY3QCo9mC8rn7OS_cZj4-9" target="oY3QCo9mC8rn7OS_cZj4-6">
          <mxGeometry relative="1" as="geometry" />
        </mxCell>
        <mxCell id="oY3QCo9mC8rn7OS_cZj4-9" value="Bash scripts" style="shape=image;verticalLabelPosition=bottom;labelBackgroundColor=default;verticalAlign=top;aspect=fixed;imageAspect=0;image=data:image/png,iVBORw0KGgoAAAANSUhEUgAAANIAAADwCAMAAABCI8pNAAAAkFBMVEX///8bGx8AAAANDRMAAAmcnJ2MjI1ra22/v78ZGR0XFxsTExgAAAj8/PwUFBkICA/i4uK0tLWSkpP39/esrK2GhoctLTCbm5yioqPKysvt7e06Oj1SUlQ1NTi4uLnHx8ghISXV1dV8fH5zc3ViYmNDQ0ZaWlzS0tJKSkzo6OlCQkVdXV8vLzPd3d5vb3BUVFYzScLGAAAMhUlEQVR4nN1d53riMBAMa4fgAgZsegDTQjuS93+7c5FkY9zVbObHfUngiCYarbbIq48P7lj2xsfL2nXXl3u3d+X/+3hjN5kCqIaudTqablgA7n4he0w06M//gap3nqBb4I5t2SOrCwcgwQexMmHWlz24OlisQcMcFBU8qAr+QQc6G9njq4zlFwyCwWv++jl0P0ejz+6hA2CFtHT4HsoeYzXMQEEjV/bn2Mqxz3sLqVGBSYvU15tCOEPgOi/D7jsuUqSpjWSMrgauP2geTCtjyI5pojm8PMSOrRb6XaQ5T1jZb9qjNxmwb7xB33Sw5v5yl//jG6lPVRxRY6uF4TfSHBi9ovduFBORPzVYfRMwkOa6Zd7eJeo7NFR9PRcv+nvJLWf4g9VnNlF91z+sOa1QcxF6Cl56qzO/sdVCzM6Nq/3PMVHf75LP2OoB2zkdjpUDousdTa8Fcx5jqwVs5zxnYVvn/281rL51M2Ipe4KkY8Gs7mdg9Q3g2AD1jQYmGs0XxWiuR6K+T3Zjq4XHBWtuSqmZLXJm6T+JCvYe7a1MVvYMLDTfd2lJF8dS0RgOTFaAFzbiUKriTsAIuxtWyj9mu+RiitwJcMXvvPYBaU4Fpr7MHKlPF277HJNojrHHufxFSQuxtm+3wppb79h/+nlKbF+tnbsG7F+sOZWT/zw3xdo+rHaeUQ5ZqSJs33mNVbHioLkIWNsd3upbHtHaFZAxcBQV2b4/jur7JJoTkdchvomnPk5JzAWxRDdB+Y/HDauvUyFSLg2iOVMRmCMdKTifwT6FPiPx9ERoNseOZZ2Yqm9Lktzic26PE1afzq6AEyW5FSlVoUh9rFLoY0mai0DUx8bU9lyc/DlJrHENT1goBq1xipLcmuRK5EbHKXQqtyVeWJFesetPGBRwooTjpRF11SHK3XRUq547Rj4A3MZUv6PqVY1Arc9ri6MDWQrVUzgbjo4IHYjBqpZoizZsl4e7SAm8rXiBfNk0Usyt4uXU0yGmvnIFHIdojmfoRYeY+orTSFGAXK+wIgo9YvuKUuhdgWkMOvTH5EzPIWd5PNZ4b/1prOYikOqw6WZuUk4YtwpMCVIicqkzinVdaInmYsDqSz/cs4dwin4aUFosD099gTmDw+trEwi93CaeqciFE1q013lyAkbWugVmIYnrNMguQiI2XASM1FMjvYUi2JcgLwtP7lFf8c2h+iNrULS4+POka/Ef7X0fyFi3co589Nf+ejJjy+nsy05TW2XqnnEN7B5EW+7K5wgt2V/T0fNnxTjhb7f+t2qKYW8Tfq24hTgZvuxau5BCLINp+g6/CQx4gw6O1cQMotW0t/zHCFo+Sd7uFCyf0OgNPGNhtshVTaL/eAS2euJNjT71vwqMAzQsD1Qaw/HUf+gGxvbHjijPJzdYyR5aPQyP6JEvDaztx9T70vQjp28DfdE+4ExRGAaeu97kKEdPiaq3lKAZZ0qrYaFDJwZNm3veq/7Pm7tAge2LKcjhPQLj4v8A7MA6aKrsAVaGg45gxBFQ9Ayd7xz5s9UqPFbkOcMkPJM3An/KZI+xEvo425hKafExN0Mz0R7gVFcGpd7Hp2cmlC/ZwyyP5T39Yd32UprHtqK3oJRjFtpJqb/PMQutpLTpmIWEWkWpyCy0j9KsyCy0jdJ5nbcVtZBS/1DCLLSK0gbU0oRaQQkXkN6H0risWWgLpXOuh9pCSvah3FbUHkojtYpZaAGl4amaWWg+pXGFragVlLbVzUKzKS2PNcxCoyml5bNaTYk84PMulMgp4beh1CsVuLaIUtnAtT2USgeubaF0XtXeippJqVLg2gpKo0qBawsoDb/ptqLmUaocuDad0qK+h9pMSvZLxbXtlByTxkNtICVaD7VxlHIrrq2ktO2wNQvSKTHxUBtFqbDi2jZKuzUHsyCV0gT1wngbSo/y1a+WUHK4WG6ZlCZ8p0gCpSN3RqIp3fkzEkzpVwAjsZTmIhgJpTQUwkgopRNn6y2e0kbMJImkNOXkecujtBA0SQIp7ZknGaRT0viFE5IoXUXpThyl3vtRKvIcTGYxhzBK49yCpQKz4DGqVlHq5hVbgpZhv4wSLI2gFD7/+k6UrPC50XeihFpPvCMly1ABTGpiDaJ0hEt37sy+aB2nBlFaoG4TLqXn1CBKCH1aN6N5lM5vQemp89HnG1CCy1PH0jutyZNPCRK/mjqukk5JTTz+Sp8Zk03JSDZl+GzPEcN0ShqQ1kdX5+t2+93TR4qSKRH7fT0AKANDYZBzkUuJPBr/SXWMukmUAPVwZyC3hlDCD/s7TFMtUimh7iY22xMDMinpbvgS47KTTEoqui2VcZFGJiXcvM5im1qWSckM3dUl4zysREr6Gr1kvs0sKXf00hgMlqQkUrL2+DXnpgadxkBhQU0iJTXWvs6+7s7n3vzLYLBFNYQSRt9RqS16I4QXh/2PlpNESrjTZQJLWu1JpKTp6d0taf0jj5KYBlg53kMCNj0lMW3KUihFrXCf8UOX9vL8+6CZ3FQCpU5Gw/z8GmgxpZ2gln/pUW1qQ/0RnfJgKKgxY0Y6xR0/Xm6H2lJSsj/6vtvIvUt1Rh5PV0GZ3m6nv0l0xdOOilLQrvVipG/lIih1fGM+GBiKCh0sFLpZCvYj/8DSYJ03Hq6UyFhw4jX/4F5RdiwozwdnYYDzpYzFlEjP4ry9VoFJUcc/n0jf9+lxIkAmJdQO9ytz0AP4WhYcVURy88vzGvC9mLEMJdRY/5b1kAn880nnU0Idt7cCWqSXoRSm/LNyEQoaYT4lrN71wN9tuU5TMSXswaTvtIHmiikRZ7XH/7qBYkpYJse0pRRqrphSdCvE1Jfv8/0koilpVnYOLH5dXq6jrvyR9wWrSTc4Sq+QEi41vTqtnuaigS2meU+oxXvXB5dEKBxbvxdRAhS22y+5V1hHvc5fG24/vzXuA4XVg2QtWBglg/jkk8QkPV3ROM+vrBnPIVLoWMGF19UQGbXa4F8FVngiEgX1J80VPeepJT2g8FSIteJ0FU56vBRefnCPLr1cP+WHrJjm7H3Rc57wcnfmgevFXxkls+tiMYwJo/s0SUZkv0r0yku7dO6L5/VsabmHv+SbEhXO6FqHR3GvvPQIecLxEr20Ykzy1ySPx+M3lGmKleXPzfA1wuyvOkxLeiUuohglZwJR2hS3HDAg897jnYsvQWV9IWUapeed/TWYDShdv4tbDsAqZ7R93IOTtfpeKQ1uz+94dVf9tVSi+40BBbHewuVyuWtK5SKxnl8pKfvFtFBzpa5Vn6E9mukVvK+UkttISlChFGvOVEptOp4nNUAfyeyi5LRiTLBZ2Iv9LItSISpcEu9NOOPrrFPMgwXT1WqqArrquDolDW5VkkBzoj42l46nOkT6YKCTLaUyJdMaFfzSBJa/RH0srobPO4EcUqp4XtJz3quHd+dIfZkbGTtKV71K9U+HUz3xzE2svgut+ooofVbq4WPqtf/I9oGob0KnvhxK6qzgYpskKAdzxnEXaFTqy6GkuasqU8RAMg6KVGrLt4hSR6vSw4fFwvbjydC3r2VkSlCqADbm18MO36djKnX/REwosdokAzhWOCQNTvWqNiwoMXNlQtCqj54SQ4cT4xGpr6IjwoIS+6A0wMgKfZaK7iILSmyDtxhi6ivt1LOgxCXBg0EaXqrlQi8CCko6nzRchNEAq69EgByhNiWNQ7oqCZJVM+BQXn11KSlpSVT2GF6QT6aqpdVXj9IAjqKuq8fZQg3WJdVXh5IWK2fyRx/f5zsoqb4alCyUlBCGIc6CqqVqHZUpRSV0gegR9f0rLlxXpOTZU57F8Ez0x5H6iv6i1ShZJp8qVwlc/5D6rKLDLVUoVdod2ANnDbwdMVcp5Sl5HmSVPZwHIvXlrefSlFRLmuYiXH+I+rJ3+pKUJGsuwnaK1ZcZA5SiVDtm5gGsPh2O6ZHarER6WK0TW/LD8h4VcNJeL36SonoMxh1bkkLXUrIeRc3kNLg0R3MRovLhz0tuqqA1hWk0SnMRYuXDl4pw3iOMNDlP7ohS6EZCfZNMk8c04cgDuHyowd/TQDOVR1FYEQX7FwXyyvOxnkOqGaeu8ohBlEKPV1P709dDGY3XXARcwPGc2UhVy5dzGdBpvOYi2PhqMh30/RlL69lEMCusiMIOJzE1C2A12fS2297oNzqExvTsiyg4KjEIAws9hB5pjm1hRRTsCaipG6wOMGuX5iIsu/pLewDdAnfWXGehBDZfLoCq+P6QbigmwHTPPcfNH9ft+PBzc93bff+5EJCc+w8IIdE8El1CUQAAAABJRU5ErkJggg==;" vertex="1" parent="oY3QCo9mC8rn7OS_cZj4-2">
          <mxGeometry x="572.5" y="29.999999999999993" width="60" height="68.57" as="geometry" />
        </mxCell>
        <mxCell id="oY3QCo9mC8rn7OS_cZj4-14" style="rounded=0;orthogonalLoop=1;jettySize=auto;html=1;exitX=0;exitY=0.75;exitDx=0;exitDy=0;" edge="1" parent="oY3QCo9mC8rn7OS_cZj4-2" source="oY3QCo9mC8rn7OS_cZj4-10" target="oY3QCo9mC8rn7OS_cZj4-6">
          <mxGeometry relative="1" as="geometry" />
        </mxCell>
        <mxCell id="oY3QCo9mC8rn7OS_cZj4-10" value="Python scripts" style="shape=image;verticalLabelPosition=bottom;labelBackgroundColor=default;verticalAlign=top;aspect=fixed;imageAspect=0;image=data:image/jpeg,/9j/4AAQSkZJRgABAQAAAQABAAD/2wCEAAkGBxAQEBAPEBIQDxAQEA8VFRUVFRUQEA4QFREXFxURFhgYHSggGBolGxcVIjEiJSkrMC4vFx8zODMtNygvLisBCgoKDg0OGxAQGy0lHyUtLy8tLTArNS0tLS0tKy0vLS0tLi8uLS8tLS03LS0vLS0tLS0tLS0tLS0tLS0tLS0vLf/AABEIAOEA4QMBEQACEQEDEQH/xAAbAAEAAgMBAQAAAAAAAAAAAAAAAQQDBQYCB//EAEsQAAECAwEKCQkHAwMDBQAAAAEAAgMEEQUGEhUhMVFSkZLRExRBU3FzgaGiFiIzNGGxssHhBzJCYmNy0iOC8JOzwiSjwyVDRFR0/8QAGgEBAAIDAQAAAAAAAAAAAAAAAAMEAQIFBv/EADURAQACAQEFBAkCBwEBAAAAAAABAgMRBBIhMVEFE0HwFCIyUmFxkbHRM6EVIzSBksHhcgb/2gAMAwEAAhEDEQA/APuKAgICAgICAgICAgICAgICAgICAgICAgICAgICAgICAgIKkW04DSWuiwgRlBc2o6UHnC8tz0LaCBheW56FtBAwvLc9C2ggYXluehbQQRhiW56FtBAwxLc9C2ggYYluehbQQMMy3PQtoIIwzLc9C2ggYZlefhbQQMNSvPwtoIGGpXn4W0EDDUrz8LaCD1DteWcaNjQic1+2p70F1AQEBAQEBAQEBAQEBBo7rpx0OAAwkGI69JGIhtCTTUB2lBrbJuZhxILIkR7wXioDb0ADkyg1KC55JQOcja2fxQPJOBzkXWz+KB5JwOci62fxQPJKBzkbWz+KB5IwOcja2fxQR5IwOcja2fxQR5IwOcja2fxQPJCBzkbWz+KB5IQOcja2fxQR5IQOcja2fxQR5HwOcja2fxQPI6X5yNrZ/FBHkdL85G1s/ig5u3LMEvG4MElhDXNJy3pxGtMxBQZpacmpM+aaw6/dPnQz/Hsog7CxbchTIoPMiAY2E4+lp/EEG1QEBAQEBAQEBAQEHN3ceihdYfhKC9Z3qULqmIK9EE0QTRAogmiBRBNECiCaIFECiCaICDn7rIWKE797T3EfNBcEK+hQ3kVD4bCcxq0VQaSds90M8LBJF6a4vvMOdqDp7m7oRMAQotGxgMXIIoHKMxzjtHsDoEBAQEBAQEBAQEHN3ceihdYfhKC9ZvqULqmIMCCUEoCCUEoCCUBAQSgICDTXUt/pMP6o+ByDY2dDvpGEczD3OKCk5qDS2nIlp4WFVpBqaYi0jHftzIOpuZt0TLbx9BGYMfJwjdMfMIN6gICAgICAgICDmruPRQusPwlBfs31KF1TEGFBWnokRt7wba5a4r6iCrxiY0TsFA4zMaJ2CgnjMxonYKBxmY0TsFBPGZnROwUDjMzoHYKBxmZ0TsFA4zM6J2CgnjMzoHYKDYyznFgLxR3KO1BlQaa6k/0mDPEHc129BtrMbSRh+2H8Tq/NBRc1BicEGhnoDpeI2PCN7R1RT8Ds3Qfog7qxLUbMwhEbicMT26D+UdHKEGwQEBAQEBAQEHNXc+ihdYfhKC/ZnqULqmIMSCtOzfB3vm1rXloBRBVwv+QbX0QThf8AINr6IGF/yDa+iBhf8g2vognC/wCQbX0QMMfkG19EE4Y/INr6IGGPyDa+iBhj8g2vog2MtFv2B9KV5O1BlQc7dVFq6HDGUBzqdJoPcUHWw5SkFkKtL1jG7IG5BhNljSOpBRm5EtyVKDWR4YcC0ioIoQg09mzjpGZqamE6gd+aHXE7pG8cqD6Ox4cA4EEEAgjGCDkIQekBAQEBAQEHNXc+ihdYfhKC/ZnqULqmIMaDBNTTYdL4E1zAH3oK+E4ei7U3egnCkPRdqbvQMKQ9F2pu9BOFIei7U3egnCkPRdqbvQMKQ9F2pu9AwpD0Xam70E4Vh6LtTd6BhWHou1N3oLsCKHtDm5DrzIMiDnbWsmM+K+K0tLTSmOhaAAKIKMSTmOWIdtxQVokrEGV/icgrRIbh+LvKDG0v5HOHaQgiZMUgX984DITjp2oO0uEtExILoLjUwSL3q3VoOwg9lEHToCAgICAgIOZu69FC6w/CUGwsv1KF1TEGNBjjiHi4S99l9Tuqgw3sv+lrCCb2X/S1hAvZf9LWEE3sv+lrCBey/wClrCCb2W/S1hAvZb9LWEE3st+lragXst+lrCC3DDaC9pe8lMlPYg9IPEYeaf8AOVBr3SrnZB8gg84Hr951OgV7yg9NsKDy3zuk091EGZlky7ckNvbV3vQXpWShUI4OHQnQbjFOhByn2feni9T/AM2oO9QEBAQEBAQczd16KF1h+EoNhZfqULqmIPCDBNSbYlKkilciDBghmk7u3IGCGaTu7cgnBDNJ3duQMDs0nd25BOB2aTu7cgYHZpP7tyCcDs0n925AwOzSf3bkE4HZpP7tyC7LwQxoaK0GfLjNUGWiCKIJogUQQgILEr80HGfZ/wCsRepPxtQd6gICAgICAg5m7v0ULrD8BQbCyvUoPVMQeUFWekzFvfOpSuLKCgqYHOkNSCcDnSGpAwOdIakE4GOkNSBgY6Q1IJwMdIakDAx0xqQTgU6Y1IGBTpjUgnAx0xqQMCnTGpAwKdMakDAp0xqQMCnTGpBnkrNMN4dfVoDiApWo5UGwQZ5b5oOM+z71iL1J+NqDvUBAQEBAQEHMXeeihdafgKDY2V6lB6piDygqzzIpveDNMtcdD7EFXgZrOdoIJ4GaznaCBwE1nO0EE8BNZztBBPATWc7QQOAms52ggngJrSO0EDgJrOdoIHATWc7QQTwE1nO0EGstK2WyxIjzUOG4fh4Rromw2ru5bRS08oazesc5aSL9oEAZIkd/7WkfFRSdxdH39Hhn2hwTldMN6Wj5OKz6Pc7+rZyN1cCNQNm2NJNKRHcCa5vPoD2LScV48G0ZaT4ukkIce+Dnuqwg/iDg7FipRRpGxQZ5f5oOL+z71iL1J+NqDvUBAQEBAQEHMXeeihdafgKDY2T6lB6piCEFWejRG3t42+rWuIupqQVOOzGh4HIJ47MaHgcgnjsxoeByBx2Y0PA5BPHZjQ8DkE8dmNDwOQOOzGh4HIHHZjQ8DkFG2bpHSkIxYwvRWjRekOiPpia2pyralJtOkNb3isay+d2ndTaNoEta4wYWhDJhtp+d+V3Rk9iu0w1qp3y2spS1zop57+xgAA7TuU2iHXotCypZuUV6XH5FNDeSbNlj+ED+5w+aaG8wRbAhn7jnN1Ob/nasM6vMjOT1mm/gRCIdcbcb4Dv3MOTpFD7Vpalbc29bzXk+rXIXUQrQhEgcHGh04SHWtK5HtPK092TppZMc0lcx5IvDppf5qNI4r7PvWIvUn42oO+QEBAQEBAQcvd76KF1p+AoNjZPqcHqmIJQVZ2cEK980uvq8tBiQVsMDQ8X0QThkaHi+iCcMjQ8X0QMMjQ8X0QThkaHi+iBhoaHi+iCcMjQ8X0QMNDQ8X0QfMLv7QdOWgyDjayE2GwCtQ0vAe9/SQWj+0K7grpXXqp57a2+TqbhrOgumBDc1pbDhOe1hxgkOaKnPlJ6VtntNacGuCsWvxdfdhZ8KLJxi9rb6FCe9jsQLXNbUAHMaUp7VWw3mLxos5qxNJ1fIrxdJzUXiAARkxLDK1LxL7zXY8WsZitZhtEqdzMUylrQAwkNfFbCIzsjUF6fYHFp/tChyxrSUuOdLQ+5wPmqC+4r7PvWIvUn42oO+QEBAQEBAQcvd76KF1p+AoNlZHqcHqmIAQYZmYYyl/wAuQUr2oMGEIGbwoJwhAzeFAwhAzeFBOEIGbwoJwhAzeFAwhAzeFBOEYGbwoJwjAzeFB8lume11tRHN+6YkvTFT/wCPDHvV/D7EefFRy+3PnwblhisiNiwnXj2ZCMo3j2KWdJjSUXGJ1hatS1pyZZwcWI28xVa0XocRkLqDH0ZFpTHSs6xDa972jSZanibvZ37lJvI91HE3ez/OxN5ndYLxZYZZVnndhWs8mYa5o/8AVpT/APVI/wC6xaW9mflKSvtR84+77vA+a5zoOJ+z31iL1J+NqDvkBAQEBAQEHL3feig9afgKDZWR6lB6piAgwzTIRpwl7y0qb1Bg4GVzs2zvQTwMrnZtnegcDK52bZ3oJ4GVzs2zvQSIMrnh7Z3oKVsz0jKQXR4t6QMQa1xc+I45GNFcvuxk5FtSs2nSGtrRWNZfNJq6uemXHi0IQWA5IbeFcBmc99RXoAVuuCsc+KrbNaeXBi4/a+lE2IX8Vt3VOjXvb9WvjSk8+Lw7mRDFJab6ja1AABoMWQDkW8RERpDSZmZ1lYv7TzRNlm5ZYL+080TZZuQRwlpZomyzcg3NhcYLX8Yvr6+F7UAYqexYZSWLdpoxtmWtdQY3UOLkHSmmsGujUwYtLTlXuNAJqTJJyACKwk9FFFlmK0tM8oifskx6zaPnH3fboVtyo/8Afh5c64vpuz+/H1dTub9HJ3ETcODHiOivbDBhUBcaAm/GJPTtn9+Pqdzfo7+XmGRBfQ3te3O0hw1hT0yVvGtZiY+DSYmOEsq3YEBAQEBBy133oYPWn4Cg2Vj+pweqYg9IK81JNi0qSCK5EGDA7NJ/duQTgdmk/u3IJwMzSf3bkE4GZpP7tyCcDM0n925B8ouyicZtDikJxMOC7gwcR88Y4r8WahH9ntV3DXdrr1Us1962nRvIcJkFjYcNtA0Yh8znJU0cUMycMcwWdDV4iTYbjdet6TRN3U3tFV9ssHt6Afmtu7lr3kMRtxuge7endneINujQOtO7O8Y3287kY3tJKd0d410ace7KaDMMS3isQ0m0vMl9/sKxbkVVZn1yH1kD3tVHb/6bL/5t9pWtn/Up84+76Nc9YzJlsQvc9t4WgXtMdQc4XgNm2euSszL0eTJNZ4Nt5Iweci+HcrHoNOso++lrJyz48g4RoTyW1pfAU/te3lB/ymJR7uXZLd5jnh55tomuSNLQ7exbSbMwWxRiORzdB4yj3HoIXqNk2mu0YovH9/hKhkxzS2i+rKMQEBAQctd/6GD1p+AoNlY/qcHqmIPSCrPyjol7R17SuLHQ+1BUwS/THegkWS/THegnBL9Md6Bgh+mO9BWtWVdLwI0dzwRBhRH0x471pIHacSzWNZiGLTpEy+a3Dyxe+NHdjIF7U8rnGrj04htLoy57fzkZraucaDk9vsC2rEzwhpMxHNpZq1HHEzzRnyuO5TRSI5opv0a9zicZJJznGVu0QsMoQQVhlBQQsCzIsNb7kGLtWtm9VOGOFnW0yB4OwKnvC5vaeSKbJkmfdmPrw/2ubLXey1j4/bi+tXEwzwUV3IYgGpuP3rx2wR6kz8Xbz84bqij04svUSCIsN8N+MOBB6Dy9O5W8f8yk1sjn1Z1hz1w8d0KYiy7vxB3+pDNDTsJ1BOxsk0zWxT5mGdqrrWLO5XpFEQEBAQcr9oHoYPWn4Cg2djepweqYg9IKs+2Mb3gvbXID7MqCreTft1s3oF5N+3Wzegm8m/brZvQTeTft1s3oNBd6+ZZZ8wXk3p4JpxtOJ0VgpiUuGPXhFmnSkuWuXjtgyRdlc+JFcBnoA3ViV6KzaVKbbsNbMR3RHXzjU9wGYK1ERHJVmZnmxFBLWkmgxlYFlsqAKvOT20A6StZs3irC6dlhiq09ALu+i03m+6jj8tnGw7csbxuo4/LZxsO3JvM7px+WzjYduTeN1WnLWFL2EDjxVpSn7RnWsy2iG1uYsd4IN6TFi0a1vK1uXHmznMB0rxvbHaHpV42fDxrE8Z6z+I8+Dt7Fs3dR3l+f2h9dkJMQILIQx0GM6Tjjcda03IxYorCXXetq90VfdbaskLKpcPCzW3Jykb+jarHDI6LD/wC429cdZKhpPdbfWesx+/BJ7WGYd+vVOcICAgIOV+0D0MHrT8BQbKxvU4HVMQZEFSfmHsvbxt9WtTQmnsxIKuEY+gNl29AwjH0Bsu3oJwjH0Bsu3oJwlH5sbLt6Dn7vZiNFs+Ya5gAHBOJvXCgbGYeU+xS4Z0vCLNGtJcJYZrAIzOeNYB+a6dOTnX5vCmQIWGVtz2wGF7sveTyNCjtKStWphQo0448jAcv4GewDlP8AmJcvb+0sWyV1vxmeURz/AOR8fou7Pst8s+ry6t1K3MwyKXsSKeUiuLsbk7arzlv/AKDa7z/LpGnymfP0dOOzsUR60z9mfyVZzMbxrH8b2/3Y/wAZ/Lb0DB1/dHko3mY+p+5P43t/ux/jP5PQNn6/ueSbeZj6n7lj+Nbf7sf4yeg7P1/dtLIuOffAw4BZ+eJUXvtF9j1BQZc/aG1xu3nSvTlH5n90lMWDDxrHH6u7saxYcqK/fiEY3EUxaLRyBT4dmpgjXnLW+Sbr7saxbW06kcEXq13WdXnhA0jPmWve1x2iJ59Gd2Zhyd0jv+tgu5aQTqiO3KpktM7RSZ6x90tY9SYfQl7BzBAQEBByv2g+hg9afgKDZWN6nA6piDIEFacnRCpUE1r7MiCvhkaB1hBOGRoHWEEi2RoHWEDDQ0DrCCnbk6JiVmIF4axYMVgxjE4sIaddFtWdLRLW0a1mHyS5qL99v7XD3H5LqVcy3VnitoSMxU8IJe5VtXj2Y1i3JmvNRtYuix2QW8haOhzsp7BTvVPaMsYqWyW5ViZWsVJvaKx4vodxtgw4hxj+jBAFNNxz+89K8Jgrbbc1s2Xj55fKHobaYaRSjvWhrQGtAAGQDEB2LraxThEK/PjKb9Y3/gbpfpOQ3WJ02wco9/uVe23Ya87R9/s3jFafB4M8z/AVDPaWHwn9m/cWeDOM9upRTt+HrP0bRhs8OnW8gJ1BRW7Qx+FZ8/VmMM+MsL5txyYvequTbsluEcEkYojm8y+N1elabNE2yatr8KtBaH9W0YTBjo+A09AIc7uJ1K3SN/aqVjrH5RzwxzL6EvYOYICAgIOU+0L0MHrT8BQbOxfU4HUsQZAgwTUeG2nCUx5BS+7UGDjkvmbsfRBPHJfM3Y+iCROy+Zux9EE8dlszdj6IJE7LZm7H0QfGrfgCTtCLe14F73PZip/SiGtAPymo/tXQw31rEqGWmkzC3Hg39HNINQOgjkKtxKpMIloDmuJNMnzCxadSsaNZC9fH7/8Axrldrf0mT5L+xfrUfYbhB/08Tr3f7bF5rsqP5M/P/UOxtPtf2b1xAFSaBWbzFY3rTpCONZ4Qoxp/kYO0/ILkZ+0/DFH95/H5+izTB7ym+I52Ukrl5Mt8k63nVYisRyeVoyJqFUCqBVBnhvDGOiOxAAk/tAV/Za7tJtKHJxnRprjIBjTUSYd+AOd/fEqANV93Lodj4pyZ5yz4fefModptu03XeL0ygICAgIOU+0L0MHrT8BQbOxfUoHUsQZAgxR5Zj6XwrTJjI9yDHg2Do97t6CcGwdHxO3oJFmQdHxO3oJwZB0fE7egnBkHR8Tt6DU3SXHy87CvMcKK2phxBVxYeUEE42nFUKTHkmko8mOLw+azNyVrSpLWQnRWVxOhXsVjuhp84doCt1z16qlsNujDg21//AK0z/o/Rbd9Xqx3M9HmUsOebHbGjS0wxoJLnuhlrWi9IqcVByLn9qXrOyZOPgs7JS0Zq8H1S4iIGy0Qnn3dv9Ni852blrj2abW6z9odXPWbXiI6M0xMOeanJyDkC4W0bVkz21ty8I8I89VumOKRwRLtBNDmWNnpW99LdC8zEcCLMS7SWuexrhlBdQjFXOrc4cMc/uj3rPPHJXnYW2N6d1g8yb1zjkrzsLbG9O6weZN65xyV52FtjendYPMm9dPG5bnYW2N6dzg8yb1zjctzsLbG9O5w+ZN67S27a4igQIFXBxAJAPnmuJjRy46LGTJvaUp5+BWunGXX3OWXxaA1h9I43z/3Hk7BQdi9VsOy+j4YrPPnPzc/Nk37atoriIQEBBDjRBx13sSsOEP1D8JQbmxfU4HUsQZQgkIJQSgkIJCCUHpAvgg8GMEGsuhj1lowzs+YVTb/6a/yS4f1Iam5L0L+td8DV5bZ/YdC/NaquUsM0ofO7D8la2T9T+34R5eSnP2A2LEdEL3NLqYgBQUaB8lcvhi06yii2iv5LM5x+oLX0avVnfk8lmc4/UE9Gr1N+WGdudZDhveIjiWNcaUGOgWLYIiJlmLyr2DYzJhrnOe5l64DEAa4q8qudn9nU2mk2tMxpOiLNnnHOkQqXPybJmI5j3OYGtrUUJPnAUx9Kv/wPF70ofS7dHeWLYctA89gLomm81cOjkHYFe2bYMOz8axrPWeaHJmtfhLcq6iEBAQEGKYOJBxN2rvMh9YfhKDorF9SgdSxBlQSEEhBKCUEhBNUGN8RBXiRkFd8ZBrbYi1gxB+X5hVNv/pr/ACS4f1IYrk/Qv60/A1eVwey6N+ayuVCyVTVhN8Vnek0e4LC5zWjK4gfVS4aXy5K46zxmdGtpitZtLdOsdl7QOdfZ+SvRmXp7dhYu70i1t7r/AM6fv8XPjbLa8YjRpbQBEtGByhkQHpxrj0rauKa25xrH0mVqZibaw1dy0SjH/vHuC7fYf6Nvn/pT2v2oaS5CLSM/q/8AkF2lV9Cko+JBsYcVBnaaoJQEBBijtqEHG3awTwTHUxNiY/ZUEA6/egvWBbkqJaFDfEaxzGBrmuqDUcozhBfwzJc9C1oGGpLnoWtAw1Jc9C1oGGpLnoWtBOG5LnoWtAw3J89C1oPL7bk+eha0FaJbUpz0PWgqxLZleeh60FaJbEtz0PWgpzNpyzmuaY0OjgRlzqPLjjJSaT4xozW27MSp2BajYLi1xBhvP3hjDXDFfDOF43S2C847urrF43odOYTXi+YQQeUY2nUo8my1v61Z0+zauSY4SxugOHJXoVW2zZI8EkZKvHBuzHUtO6ye7LbejqywGPa4OAoQQRVT4MebHeL1jSYnXi0vakxMS3brTaG1IoQMdSL0duZeq/itdz2fW/b6/wDHN9GnXnwcVdDbTXgwoZqCavfyGhrQb15/Nlm86RxmV2tdFazrTl4MLHFaTjcQMZJzDuXqez9mnZ8MVnnPGfm52bJv31hrbkIZMR7uQNA7Sa07ldRO/k24kGxhILUJBlQEBAIQUZ2Ta9pa4BzXChByEIOXj3IwqktdEaM1QQNYqgwm5NmnE8O5A8k2acTw7kDyTZpxPDuQPJNmnE8O5A8k2acTw7kDyTZpxPDuQPJNmnE8O5B4dcizTieHcgwPuSZpxPDuQYH3Js0onh3IML7lG6T+7cgiFc7eZHvoeQ0p7lU2rYsW0x6/PwnxSY8tqcntkrMQTWGXD9ppXpByrg5eytpxT/L9aPPhP/V2u0Utz4LDbemWYntaf3NLT3UHcqdpzY/brMfONEsbs8pZPKd/Nt2itPSPgzuMbrfmH/ca0ftaXHvxdy2rOXJ7FZn5RqxO7HOVeJAmY3pC4j8xxDoaMiuY+y9qy+3wj4/iEVtox15cXmLYBeKF7wMwoAV2tk7OxbP60cbdZ/10VMme1+Hg9Qbkmcronh3LoIXS2XZLYTQ1jb0DWTnJ5Sg3UKBRBahwkGcCiCUBAQEBB4dDBQeeACBwAQOACBwAQOACBwAQOACBwAQQZZqDw6SagxOs9qDG6zQgxmzQg8GzQg84LbmGpY0g1ehZoWR6FmhBkbZoQZmSICDO2AAgyBgQekBAQEBAQEBAQEBAQEBAQEBAQEBAQQghBIQSgICAgICAgIP/2Q==;" vertex="1" parent="oY3QCo9mC8rn7OS_cZj4-2">
          <mxGeometry x="572.5" y="180" width="65" height="65" as="geometry" />
        </mxCell>
        <mxCell id="oY3QCo9mC8rn7OS_cZj4-18" value="Back-end" style="text;html=1;align=center;verticalAlign=middle;whiteSpace=wrap;rounded=0;" vertex="1" parent="oY3QCo9mC8rn7OS_cZj4-2">
          <mxGeometry x="305" y="30" width="60" height="30" as="geometry" />
        </mxCell>
        <mxCell id="oY3QCo9mC8rn7OS_cZj4-19" value="Front-end" style="text;html=1;align=center;verticalAlign=middle;whiteSpace=wrap;rounded=0;" vertex="1" parent="oY3QCo9mC8rn7OS_cZj4-2">
          <mxGeometry x="35" y="20" width="60" height="30" as="geometry" />
        </mxCell>
      </root>
    </mxGraphModel>
  </diagram>
</mxfile>
